# xmcd CD database file
#
# Track frame offsets:
#	150
#	15679
#	25570
#	44087
#	57448
#	72288
#	94516
#	121446
#	131588
#	148693
#
# Disc length: 2495 seconds
#
# Revision: 0
# Processed by: cddbd v1.5.1PL0 Copyright (c) Steve Scherf et al.
# Submitted via: CDex 1.51
#
DISCID=8b09bd0a
DTITLE=Tim Miser - Into Final Corners
DYEAR=1900
DGENRE=Country
TTITLE0=Pretty Lily Never Saw it Coming
TTITLE1=Sweet Long Goodbyes
TTITLE2=Room to Move
TTITLE3=All Those Who Wage Against Me Tremble
TTITLE4=Letter to a Long Departed Lover
TTITLE5=Ground Beneath Your Fall
TTITLE6=Hope is My Invention
TTITLE7=Lay Your Weapon Down
TTITLE8=In a Station Off the Road
TTITLE9=Driving Past Denver
EXTD=
EXTT0=
EXTT1=
EXTT2=
EXTT3=
EXTT4=
EXTT5=
EXTT6=
EXTT7=
EXTT8=
EXTT9=
PLAYORDER=
